<svg width="356" height="94" viewBox="0 0 356 94" fill="none" xmlns="http://www.w3.org/2000/svg">
<path d="M56.392 44.1875H43.9489C43.7216 42.5777 43.2576 41.1477 42.5568 39.8977C41.8561 38.6288 40.9564 37.5492 39.858 36.6591C38.7595 35.7689 37.4905 35.0871 36.0511 34.6136C34.6307 34.1402 33.0871 33.9034 31.4205 33.9034C28.4091 33.9034 25.786 34.6515 23.5511 36.1477C21.3163 37.625 19.5833 39.7841 18.3523 42.625C17.1212 45.447 16.5057 48.875 16.5057 52.9091C16.5057 57.0568 17.1212 60.5417 18.3523 63.3636C19.6023 66.1856 21.3447 68.3163 23.5795 69.7557C25.8144 71.1951 28.3996 71.9148 31.3352 71.9148C32.983 71.9148 34.5076 71.697 35.9091 71.2614C37.3295 70.8258 38.589 70.1913 39.6875 69.358C40.786 68.5057 41.6951 67.4735 42.4148 66.2614C43.1534 65.0492 43.6648 63.6667 43.9489 62.1136L56.392 62.1705C56.0701 64.8409 55.2652 67.4167 53.9773 69.8977C52.7083 72.3598 50.9943 74.5663 48.8352 76.517C46.6951 78.4489 44.1383 79.983 41.1648 81.1193C38.2102 82.2367 34.8674 82.7955 31.1364 82.7955C25.947 82.7955 21.3068 81.6212 17.2159 79.2727C13.1439 76.9242 9.92424 73.5246 7.55682 69.0739C5.20833 64.6231 4.03409 59.2348 4.03409 52.9091C4.03409 46.5644 5.22727 41.1667 7.61364 36.7159C10 32.2652 13.2386 28.875 17.3295 26.5455C21.4205 24.197 26.0227 23.0227 31.1364 23.0227C34.5076 23.0227 37.6326 23.4962 40.5114 24.4432C43.4091 25.3902 45.9754 26.7727 48.2102 28.5909C50.4451 30.3901 52.2633 32.5966 53.6648 35.2102C55.0852 37.8239 55.9943 40.8163 56.392 44.1875ZM65.2131 82V23.8182H88.1676C92.5616 23.8182 96.3116 24.6042 99.4176 26.1761C102.543 27.7292 104.92 29.9356 106.548 32.7955C108.196 35.6364 109.02 38.9792 109.02 42.8239C109.02 46.6875 108.187 50.0114 106.52 52.7955C104.853 55.5606 102.438 57.6818 99.2756 59.1591C96.1316 60.6364 92.3248 61.375 87.8551 61.375H72.4858V51.4886H85.8665C88.215 51.4886 90.1657 51.1667 91.7188 50.5227C93.2718 49.8788 94.4271 48.9129 95.1847 47.625C95.9612 46.3371 96.3494 44.7367 96.3494 42.8239C96.3494 40.892 95.9612 39.2633 95.1847 37.9375C94.4271 36.6117 93.2623 35.608 91.6903 34.9261C90.1373 34.2254 88.1771 33.875 85.8097 33.875H77.5142V82H65.2131ZM96.6335 55.5227L111.094 82H97.5142L83.3665 55.5227H96.6335ZM117.713 82V23.8182H156.918V33.9602H130.014V47.8239H154.901V57.9659H130.014V71.858H157.031V82H117.713Z" fill="#F59403" fill-opacity="0.5"/>
<path d="M60.392 40.1875H47.9489C47.7216 38.5777 47.2576 37.1477 46.5568 35.8977C45.8561 34.6288 44.9564 33.5492 43.858 32.6591C42.7595 31.7689 41.4905 31.0871 40.0511 30.6136C38.6307 30.1402 37.0871 29.9034 35.4205 29.9034C32.4091 29.9034 29.786 30.6515 27.5511 32.1477C25.3163 33.625 23.5833 35.7841 22.3523 38.625C21.1212 41.447 20.5057 44.875 20.5057 48.9091C20.5057 53.0568 21.1212 56.5417 22.3523 59.3636C23.6023 62.1856 25.3447 64.3163 27.5795 65.7557C29.8144 67.1951 32.3996 67.9148 35.3352 67.9148C36.983 67.9148 38.5076 67.697 39.9091 67.2614C41.3295 66.8258 42.589 66.1913 43.6875 65.358C44.786 64.5057 45.6951 63.4735 46.4148 62.2614C47.1534 61.0492 47.6648 59.6667 47.9489 58.1136L60.392 58.1705C60.0701 60.8409 59.2652 63.4167 57.9773 65.8977C56.7083 68.3598 54.9943 70.5663 52.8352 72.517C50.6951 74.4489 48.1383 75.983 45.1648 77.1193C42.2102 78.2367 38.8674 78.7955 35.1364 78.7955C29.947 78.7955 25.3068 77.6212 21.2159 75.2727C17.1439 72.9242 13.9242 69.5246 11.5568 65.0739C9.20833 60.6231 8.03409 55.2348 8.03409 48.9091C8.03409 42.5644 9.22727 37.1667 11.6136 32.7159C14 28.2652 17.2386 24.875 21.3295 22.5455C25.4205 20.197 30.0227 19.0227 35.1364 19.0227C38.5076 19.0227 41.6326 19.4962 44.5114 20.4432C47.4091 21.3902 49.9754 22.7727 52.2102 24.5909C54.4451 26.3901 56.2633 28.5966 57.6648 31.2102C59.0852 33.8239 59.9943 36.8163 60.392 40.1875ZM69.2131 78V19.8182H92.1676C96.5616 19.8182 100.312 20.6042 103.418 22.1761C106.543 23.7292 108.92 25.9356 110.548 28.7955C112.196 31.6364 113.02 34.9792 113.02 38.8239C113.02 42.6875 112.187 46.0114 110.52 48.7955C108.853 51.5606 106.438 53.6818 103.276 55.1591C100.132 56.6364 96.3248 57.375 91.8551 57.375H76.4858V47.4886H89.8665C92.215 47.4886 94.1657 47.1667 95.7188 46.5227C97.2718 45.8788 98.4271 44.9129 99.1847 43.625C99.9612 42.3371 100.349 40.7367 100.349 38.8239C100.349 36.892 99.9612 35.2633 99.1847 33.9375C98.4271 32.6117 97.2623 31.608 95.6903 30.9261C94.1373 30.2254 92.1771 29.875 89.8097 29.875H81.5142V78H69.2131ZM100.634 51.5227L115.094 78H101.514L87.3665 51.5227H100.634ZM121.713 78V19.8182H160.918V29.9602H134.014V43.8239H158.901V53.9659H134.014V67.858H161.031V78H121.713Z" fill="#F59403"/>
<path d="M248.057 78V19.8182H287.261V29.9602H260.358V43.8239H285.244V53.9659H260.358V67.858H287.375V78H248.057ZM297.041 78V19.8182H319.996C324.39 19.8182 328.14 20.6042 331.246 22.1761C334.371 23.7292 336.748 25.9356 338.376 28.7955C340.024 31.6364 340.848 34.9792 340.848 38.8239C340.848 42.6875 340.015 46.0114 338.348 48.7955C336.681 51.5606 334.267 53.6818 331.104 55.1591C327.96 56.6364 324.153 57.375 319.683 57.375H304.314V47.4886H317.695C320.043 47.4886 321.994 47.1667 323.547 46.5227C325.1 45.8788 326.255 44.9129 327.013 43.625C327.789 42.3371 328.178 40.7367 328.178 38.8239C328.178 36.892 327.789 35.2633 327.013 33.9375C326.255 32.6117 325.09 31.608 323.518 30.9261C321.965 30.2254 320.005 29.875 317.638 29.875H309.342V78H297.041ZM328.462 51.5227L342.922 78H329.342L315.195 51.5227H328.462Z" fill="#F59403"/>
<path d="M244.057 82V23.8182H283.261V33.9602H256.358V47.8239H281.244V57.9659H256.358V71.858H283.375V82H244.057ZM293.041 82V23.8182H315.996C320.39 23.8182 324.14 24.6042 327.246 26.1761C330.371 27.7292 332.748 29.9356 334.376 32.7955C336.024 35.6364 336.848 38.9792 336.848 42.8239C336.848 46.6875 336.015 50.0114 334.348 52.7955C332.681 55.5606 330.267 57.6818 327.104 59.1591C323.96 60.6364 320.153 61.375 315.683 61.375H300.314V51.4886H313.695C316.043 51.4886 317.994 51.1667 319.547 50.5227C321.1 49.8788 322.255 48.9129 323.013 47.625C323.789 46.3371 324.178 44.7367 324.178 42.8239C324.178 40.892 323.789 39.2633 323.013 37.9375C322.255 36.6117 321.09 35.608 319.518 34.9261C317.965 34.2254 316.005 33.875 313.638 33.875H305.342V82H293.041ZM324.462 55.5227L338.922 82H325.342L311.195 55.5227H324.462Z" fill="#F59403" fill-opacity="0.5"/>
<path fill-rule="evenodd" clip-rule="evenodd" d="M168 25H204.438H234V82.5827H204.438V94L193.88 89.036V67.6906H178.03V86.0576L168 82.5827V31.9496V25ZM225.5 74H204V33H225.5V74ZM193.88 60.741H178.03V33.9353H193.88V60.741Z" fill="#F59403" fill-opacity="0.5"/>
<path fill-rule="evenodd" clip-rule="evenodd" d="M172 19H208.438H238V76.5827H208.438V88L197.88 83.036V61.6906H182.03V80.0576L172 76.5827V25.9496V19ZM229.5 68H208V27H229.5V68ZM197.88 54.741H182.03V27.9353H197.88V54.741Z" fill="#F59403"/>
</svg>
